<svg width="122" height="88" viewBox="0 0 122 88" fill="none" xmlns="http://www.w3.org/2000/svg">
<path d="M118.933 33.4421C116.199 31.5447 109.932 30.8331 105.032 31.7818C104.463 27.0383 101.842 22.8877 97.2844 19.2114L94.6637 17.314L92.8406 20.0415C90.5618 23.5992 89.4224 28.5799 89.7642 33.3235C89.8781 34.9837 90.4478 37.9485 92.157 40.5574C90.5618 41.5061 87.2575 42.692 82.9277 42.692H0.547794L0.319911 43.6407C-0.477682 48.3843 -0.477682 63.2079 8.86554 74.5925C15.9299 83.2495 26.4126 87.6373 40.1995 87.6373C70.0523 87.6373 92.157 73.288 102.526 47.317C106.628 47.4356 115.401 47.317 119.845 38.4228C119.959 38.1856 120.187 37.7113 120.984 35.9325L121.44 34.9838L118.933 33.4421ZM66.4061 0H53.8725V11.8589H66.4061V0ZM66.4061 14.2307H53.8725V26.0896H66.4061V14.2307ZM51.5937 14.2307H39.0601V26.0896H51.5937V14.2307ZM36.7813 14.2307H24.2477V26.0896H36.7813V14.2307ZM21.9688 28.4614H9.43525V40.3203H21.9688V28.4614ZM36.7813 28.4614H24.2477V40.3203H36.7813V28.4614ZM51.5937 28.4614H39.0601V40.3203H51.5937V28.4614ZM66.4061 28.4614H53.8725V40.3203H66.4061V28.4614ZM81.2186 28.4614H68.685V40.3203H81.2186V28.4614Z" fill="#FE705A"/>
</svg>
