<svg width="48" height="48" viewBox="0 0 48 48" fill="none" xmlns="http://www.w3.org/2000/svg">
<mask id="mask0_17_83" style="mask-type:luminance" maskUnits="userSpaceOnUse" x="0" y="0" width="48" height="48">
<path d="M48 0H0V48H48V0Z" fill="white"/>
</mask>
<g mask="url(#mask0_17_83)">
<path d="M0 15.5792C0 9.35769 3.83632 3.74813 9.87831 2.26425C19.9862 -0.218203 35.2427 -2.26324 42.753 5.24707C49.0925 11.5867 48.6236 23.4456 46.8302 33.0683C45.1204 42.2426 36.587 48 27.2548 48H7.5C3.35787 48 0 44.6421 0 40.5V15.5792Z" fill="#FE705A"/>
<path d="M27.1751 34.9069C27.1536 34.5204 27.1214 33.9405 27.0784 33.1673C27.057 32.3726 27.0247 31.4813 26.9818 30.4934C26.9604 29.484 26.9281 28.4317 26.8852 27.3363C26.8422 26.241 26.7992 25.1993 26.7563 24.2114C26.7348 23.2235 26.7133 22.3429 26.6918 21.5697C26.6704 20.775 26.6596 20.1845 26.6596 19.7979C26.6596 19.669 26.6489 19.4542 26.6274 19.1535C26.6274 18.8314 26.6274 18.4985 26.6274 18.1549C26.6274 17.7898 26.6274 17.4461 26.6274 17.124C26.6489 16.8018 26.6596 16.5763 26.6596 16.4475C26.402 16.5763 26.0905 16.8018 25.7254 17.124C25.3818 17.4461 25.0059 17.8005 24.5978 18.1871C24.1898 18.5522 23.771 18.8958 23.3414 19.218C22.9334 19.5187 22.5468 19.7119 22.1817 19.7979C21.6877 19.4972 21.4622 19.1321 21.5052 18.7025C21.5481 18.2515 21.7844 17.779 22.2139 17.2851C22.6649 16.7696 23.2555 16.2434 23.9858 15.7065C24.7375 15.1695 25.5536 14.6541 26.4341 14.1602C27.3362 13.6661 28.2596 13.2151 29.2046 12.8071C30.1497 12.399 31.041 12.0661 31.8786 11.8085C32.7376 11.5293 33.4893 11.3574 34.1336 11.293C34.7995 11.207 35.2934 11.25 35.6156 11.4218C36.2169 12.0446 36.5068 12.8178 36.4853 13.7413C36.4639 14.6649 36.2598 15.6528 35.8732 16.7052C35.4867 17.7575 34.982 18.8529 34.3591 19.9911C33.7364 21.1294 33.1349 22.2355 32.5551 23.3093C31.9752 24.3617 31.4812 25.3604 31.0732 26.3054C30.6651 27.2289 30.4718 28.0236 30.4932 28.6893C30.5148 29.3551 30.8261 29.8491 31.4276 30.1713C32.0289 30.4934 33.0491 30.5685 34.488 30.3968C35.2182 30.225 35.9806 29.9565 36.7753 29.5914C37.57 29.2048 38.3431 28.786 39.0948 28.3349C39.8465 27.8625 40.5445 27.3685 41.1888 26.8531C41.8546 26.3376 42.4131 25.8544 42.864 25.4034C43.6157 25.5966 44.0346 25.8758 44.1204 26.241C44.2063 26.6061 44.056 27.0141 43.6694 27.4652C43.3044 27.9162 42.746 28.3886 41.9942 28.8827C41.2425 29.3766 40.3942 29.8598 39.4492 30.3324C38.5042 30.7834 37.5163 31.1914 36.4853 31.5565C35.4759 31.9216 34.4988 32.2008 33.5538 32.3941C32.6302 32.5874 31.7926 32.6733 31.041 32.6518C30.3108 32.6304 29.7738 32.4478 29.4301 32.1042C29.4301 32.2331 29.4195 32.4586 29.398 32.7807C29.3764 33.1029 29.3335 33.4465 29.2691 33.8117C29.2046 34.1552 29.0972 34.4881 28.9469 34.8103C28.7966 35.1109 28.5819 35.3257 28.3027 35.4546C28.0664 35.562 27.8409 35.5405 27.6261 35.3901C27.4328 35.2398 27.2825 35.0788 27.1751 34.9069ZM28.8825 27.8196L34.8101 14.5789C34.6598 14.085 34.4021 13.7413 34.037 13.548C33.6933 13.3333 33.296 13.2366 32.845 13.2581C32.394 13.2581 31.9323 13.3548 31.4597 13.548C30.9873 13.7413 30.5469 13.9776 30.1389 14.2568C29.7524 14.5145 29.4301 14.8045 29.1724 15.1266C28.9148 15.4273 28.7859 15.7065 28.7859 15.9642L28.8825 27.8196Z" fill="white"/>
</g>
<path d="M11.6751 35.6569C11.6536 35.2704 11.6214 34.6905 11.5784 33.9173C11.557 33.1226 11.5247 32.2313 11.4818 31.2434C11.4604 30.234 11.4281 29.1817 11.3852 28.0863C11.3422 26.991 11.2992 25.9493 11.2563 24.9614C11.2348 23.9735 11.2133 23.0929 11.1918 22.3197C11.1704 21.525 11.1596 20.9345 11.1596 20.5479C11.1596 20.419 11.1489 20.2042 11.1274 19.9035C11.1274 19.5814 11.1274 19.2485 11.1274 18.9049C11.1274 18.5398 11.1274 18.1961 11.1274 17.874C11.1489 17.5518 11.1596 17.3263 11.1596 17.1975C10.902 17.3263 10.5905 17.5518 10.2254 17.874C9.88175 18.1961 9.50591 18.5505 9.09784 18.9371C8.68978 19.3022 8.27098 19.6458 7.84144 19.968C7.43338 20.2687 7.04679 20.4619 6.68168 20.5479C6.18771 20.2472 5.9622 19.8821 6.00515 19.4525C6.04811 19.0015 6.28435 18.529 6.71389 18.0351C7.16491 17.5196 7.75553 16.9934 8.48575 16.4565C9.23745 15.9195 10.0536 15.4041 10.9341 14.9102C11.8362 14.4161 12.7596 13.9651 13.7046 13.5571C14.6497 13.149 15.541 12.8161 16.3786 12.5585C17.2376 12.2793 17.9893 12.1074 18.6336 12.043C19.2995 11.957 19.7934 12 20.1156 12.1718C20.7169 12.7946 21.0068 13.5678 20.9853 14.4913C20.9639 15.4149 20.7598 16.4028 20.3732 17.4552C19.9867 18.5075 17.8562 18.8298 17.2333 19.968C16.6106 21.1063 17.6349 22.9855 17.0551 24.0593C16.4752 25.1117 15.9812 26.1104 15.5732 27.0554C15.1651 27.9789 14.9718 28.7736 14.9932 29.4393C15.0148 30.1051 15.3261 30.5991 15.9276 30.9213C16.5289 31.2434 17.5491 31.3185 18.988 31.1468C19.7182 30.975 20.4806 30.7065 21.2753 30.3414C22.07 29.9548 22.8431 29.536 23.5948 29.0849C24.3465 28.6125 25.0445 28.1185 25.6888 27.6031C26.3546 27.0876 26.9131 26.6044 27.364 26.1534C28.1157 26.3466 28.5346 26.6258 28.6204 26.991C28.7063 27.3561 28.556 27.7641 28.1694 28.2152C27.8044 28.6662 27.246 29.1386 26.4942 29.6327C25.7425 30.1266 24.8942 30.6098 23.9492 31.0824C23.0042 31.5334 22.0163 31.9414 20.9853 32.3065C19.9759 32.6716 18.9988 32.9508 18.0538 33.1441C17.1302 33.3374 16.2926 33.4233 15.541 33.4018C14.8108 33.3804 14.2738 33.1978 13.9301 32.8542C13.9301 32.9831 13.9195 33.2086 13.898 33.5307C13.8764 33.8529 13.8335 34.1965 13.7691 34.5617C13.7046 34.9052 13.5972 35.2381 13.4469 35.5603C13.2966 35.8609 13.0819 36.0757 12.8027 36.2046C12.5664 36.312 12.3409 36.2905 12.1261 36.1401C11.9328 35.9898 11.7825 35.8288 11.6751 35.6569ZM13.3825 28.5696L19.3101 15.3289C19.1598 14.835 18.9021 14.4913 18.537 14.298C18.1933 14.0833 17.796 13.9866 17.345 14.0081C16.894 14.0081 16.4323 14.1048 15.9597 14.298C15.4873 14.4913 15.0469 14.7276 14.6389 15.0068C14.2524 15.2645 13.9301 15.5545 13.6724 15.8766C13.4148 16.1773 13.2859 16.4565 13.2859 16.7142L13.3825 28.5696Z" fill="white"/>
<path d="M16.3125 18.875C16.2878 19.1585 16.6121 19.4584 16.7014 19.7361C16.7288 19.8214 16.7403 19.9195 16.8264 19.9514C17.221 20.0976 17.75 19.8947 17.75 20.4167C17.75 21.0419 17.4875 21.4948 17.2951 22.0868C17.226 22.2995 17.1875 22.5232 17.1875 22.7465C17.1875 23.0151 17.0129 23.1948 16.8611 23.4028C16.4977 23.9008 16.6875 24.8154 16.6875 25.3889C16.6875 25.6238 16.6875 25.8588 16.6875 26.0938C16.6875 27.5608 16.5625 23.1615 16.5625 21.6944C16.5625 21.5816 16.5301 21.393 16.5694 21.2847C16.6001 21.2004 16.7217 21.131 16.7743 21.059C16.9786 20.7794 17.0356 20.3048 17.1319 19.9896C17.3471 19.2854 17.5973 18.5802 18.0486 18C18.162 17.8542 18.3584 17.5381 18.4236 17.3681C18.5824 16.9541 18.4921 16.4579 18.7014 16.0625C18.7648 15.9427 18.8645 15.6404 18.9653 15.5972C19.0344 15.5676 18.8478 15.8975 18.7778 15.9375C18.7702 15.9418 18.375 16.3571 18.375 16.0625C18.375 16.0607 18.6347 15.7672 18.6562 15.75C18.6708 15.7383 18.7871 15.6319 18.7187 15.6319C18.6885 15.6319 18.6797 15.7851 18.625 15.8125" stroke="#FE705A" stroke-width="3" stroke-linecap="round"/>
<path d="M18.0625 16.875C18.0876 16.5744 18.1415 16.3926 18.4097 16.316C18.6284 16.2535 18.75 16.2312 18.75 15.9514C18.75 15.8635 18.7707 15.7445 18.7465 15.6597C18.7399 15.6364 18.4241 15.5976 18.5347 15.566C19.3299 15.3388 18.9476 16.3767 18.875 16.8125" stroke="#FE705A" stroke-width="3" stroke-linecap="round"/>
<path d="M17.75 16.125C17.75 15.9415 17.6753 15.6396 17.9375 15.625C18.1149 15.6151 17.958 15.6348 17.875 15.625C17.7752 15.6133 17.7531 15.5 17.5938 15.5C16.9754 15.5 16.75 15.6362 16.75 16.3125" stroke="#FE705A" stroke-width="3" stroke-linecap="round"/>
<path d="M17.0625 32.5C17.2516 32.2636 17.4256 31.4346 17.4931 31.2361C17.7037 30.616 18.028 29.6759 18.2639 29.0694C18.3037 28.967 18.7165 27.5732 19.1007 27.6146C19.3525 27.6417 19.5728 28.2284 19.6076 28.3056C19.8551 28.8541 20.0126 29.3621 20.2049 29.934C20.3758 30.4428 20.4941 30.836 20.691 31.3229C20.7547 31.4805 20.9219 32.0415 21.0278 32.1806C21.7655 33.1498 24.1368 30.4521 24.4583 30.1111C25.1288 29.4001 25.3613 29.0435 25.8542 28.3056C26.1135 27.9173 26.0435 28.1585 25.9861 28.5C25.9119 28.9413 25.8009 29.37 25.6319 29.7847C25.5788 29.9151 25.4508 30.2999 25.4375 30.1597C25.3432 29.1691 25.5529 28.0991 25.8368 27.1528C25.9088 26.9129 25.695 27.0087 25.6111 27.1389C25.0227 28.052 24.6278 29.0829 23.9132 29.9132C23.5896 30.2892 23.3291 30.5557 22.9479 30.8854C22.5946 31.1911 21.9876 31.7645 21.4653 31.7847C20.6879 31.8148 20.7276 29.5752 20.7118 29.184C20.6881 28.5978 20.6118 27.82 20.75 27.2326C20.8691 26.7265 20.815 28.272 20.7986 28.7917C20.7684 29.7494 20.6839 30.706 20.4236 31.6319C20.2926 32.098 20.0911 32.9175 19.5764 33.1319C19.0298 33.3597 18.9679 28.9525 18.9514 28.4861C18.9451 28.3077 18.9899 28.1171 18.9236 27.9514C18.7887 27.614 18.8596 28.6754 18.8403 29.0382C18.7837 30.1027 18.7195 31.1652 18.5764 32.2222C18.5548 32.3817 18.5374 32.482 18.5139 32.6319C18.5099 32.6575 18.5212 32.5806 18.5278 32.5556C18.6731 31.9985 18.8788 31.3389 19.0556 30.8264C19.733 28.8626 20.4293 26.8203 21.5382 25.0486C22.3641 23.7289 23.6157 22.6104 25.2535 22.6181C26.0246 22.6217 26.5487 22.9982 27.0069 23.5694C27.2874 23.919 27.25 24.3025 27.25 24.7222C27.25 25.8035 27.2392 26.7714 26.8993 27.809C26.8373 27.9982 26.761 28.2135 26.625 28.3646C26.2988 28.727 25.1207 28.5829 24.7292 28.5486C24.1806 28.5005 23.7803 28.3548 23.3125 28.1042C22.9766 27.9242 22.5627 28.5064 22.4201 28.6944C21.4868 29.9256 21.1119 31.3919 20.4514 32.7569C20.3372 32.9929 19.5044 33.6831 19.1458 33.9028C18.7754 34.1297 17.9147 34.5791 17.5417 34.0833C17.3675 33.8518 17.3624 33.483 17.3125 33.2083C17.2878 33.0726 17.0823 32.9511 17 32.8576C16.8122 32.6442 16.695 32.4373 16.6875 32.1528C16.6815 31.9251 16.6608 31.7439 16.6215 31.5278C16.6117 31.4738 16.4767 31.2429 16.4514 31.3819C16.3889 31.7256 16.4375 32.1123 16.4375 32.4618C16.4375 32.6888 16.415 32.9035 16.3611 33.125C16.3463 33.186 16.341 33.3409 16.309 33.3889C16.2901 33.4172 16.2835 33.3252 16.2778 33.2917C16.2238 32.9757 16.2046 32.6518 16.1736 32.3333C16.1307 31.8925 16.0745 31.4502 16.0625 31.0069C16.0612 30.9598 16.0625 30.7369 16.0625 30.9549C16.0625 31.419 16.1137 32.8085 16.0625 32.3472C16.0181 31.9478 15.875 30.7544 15.875 31.1562C15.875 31.5509 15.875 31.9456 15.875 32.3403C15.875 32.4873 15.875 32.6343 15.875 32.7812C15.875 33.2801 15.875 31.7836 15.875 31.2847C15.875 31.0262 15.875 30.8554 15.875 31.25C15.875 31.5259 15.9006 31.8017 15.8125 32.066C15.6926 32.4258 15.7638 32.7974 15.684 33.1562C15.6713 33.2133 15.6267 33.375 15.5625 33.375C15.4322 33.375 15.5 32.5304 15.5 32.3958C15.5 31.4747 15.5625 30.5596 15.5625 29.6389C15.5625 27.6858 15.5647 25.6661 15.684 23.6979C15.69 23.5998 15.6875 23.501 15.6875 23.4028C15.6875 23.0946 15.6867 22.8532 15.691 22.5347C15.6948 22.2467 15.5831 21.4494 15.7639 21.6736C15.9533 21.9085 15.9126 22.5362 15.9236 22.8056C15.95 23.4485 15.9538 24.0997 15.934 24.7431C15.9296 24.8864 15.8777 25.2563 15.8125 24.809C15.6802 23.9022 15.6945 22.9635 15.6875 22.0486C15.6854 21.7743 15.6843 21.8739 15.6736 22.1111C15.6333 23.0019 15.625 23.8931 15.625 24.7847C15.625 25.545 15.5031 24.1741 15.5 23.9931C15.4979 23.8707 15.5 23.9068 15.5 24.0069C15.5 24.3218 15.5 24.6366 15.5 24.9514C15.5 25.0396 15.496 25.6799 15.5 25.2222C15.5039 24.7775 15.4757 24.2766 15.5937 23.8437C15.6135 23.7712 15.6863 24.4947 15.6875 24.6389C15.6963 25.7061 15.5467 26.8027 15.2951 27.8368C15.0951 28.6594 14.9531 27.1527 14.9236 26.9236C14.8779 26.5679 14.875 26.2194 14.875 25.8611C14.875 25.696 14.8412 26.1897 14.8264 26.3542C14.7929 26.7264 14.8125 25.8468 14.8125 25.8229C14.8125 25.6088 14.8125 25.3947 14.8125 25.1806C14.8125 24.9931 14.8125 25.5556 14.8125 25.7431C14.8125 26.2002 14.8125 26.6574 14.8125 27.1146C14.8125 27.8375 14.7656 26.198 14.7639 26.1389C14.7583 25.9517 14.75 24.5615 14.75 25.4375C14.75 25.8102 14.7863 26.2059 14.7361 26.5764C14.6688 27.0725 14.757 27.5934 14.6736 28.0833C14.6506 28.2183 14.625 28.3302 14.625 28.4687C14.625 28.8443 14.5634 28.0287 14.5625 27.9722C14.5615 27.9094 14.5789 27.3484 14.4653 27.316C14.3367 27.2792 14.375 27.6899 14.375 27.7812C14.375 27.9904 14.3331 28.2648 14.2535 27.9062C14.1703 27.5319 14.3494 27.7455 14.2361 27.9722C14.1951 28.0542 14.162 27.7925 14.1285 27.9097C14.1053 27.9909 14.125 28.1032 14.125 28.1875C14.125 28.2992 14.1543 28.6314 14.2222 28.7187C14.656 29.2764 14.625 29.9324 14.625 30.6319C14.625 31.5172 14.75 34.17 14.75 33.2847C14.75 32.7199 14.75 32.1551 14.75 31.5903C14.75 31.3317 14.75 31.8614 14.75 31.9097C14.75 32.0742 14.7272 32.1893 14.684 32.3403C14.6489 32.4631 14.5025 32.334 14.5 32.25C14.4962 32.1253 14.5 31.9998 14.5 31.875C14.5 31.4687 14.8009 31.1844 14.8125 30.7778C14.8192 30.5416 14.8256 30.2983 14.8125 30.0625C14.8053 29.9334 14.6544 29.931 14.6285 29.8403C14.5835 29.683 14.6645 29.4983 14.6146 29.3403C14.5532 29.1458 14.3903 28.8987 14.2986 28.7153C14.2602 28.6384 14.1105 28.6068 14.0347 28.6285C13.9445 28.6542 13.9874 29.0991 14.0625 29.1389C14.2651 29.2461 14.2256 29.3125 14.5 29.3125C14.6756 29.3125 14.875 29.4122 14.875 29.5937C14.875 30.1366 14.875 30.6794 14.875 31.2222C14.875 31.4611 14.8698 31.8181 14.75 32.0278C14.6778 32.1541 14.3899 30.3102 14.375 31.2917C14.3681 31.7451 14.375 32.1993 14.375 32.6528C14.375 32.7477 14.375 32.8426 14.375 32.9375C14.375 32.9617 14.3727 33.0705 14.375 32.9514C14.3811 32.6268 14.4271 32.308 14.4653 31.9861C14.5606 31.1826 14.4819 30.3688 14.5625 29.5625" stroke="#FE705A" stroke-width="3" stroke-linecap="round"/>
<path d="M14.125 34.625C14.0949 34.8964 13.9418 34.5727 13.9375 34.4514C13.9336 34.3429 13.9375 34.2336 13.9375 34.125C13.9375 33.7062 14.172 33.2807 14.1875 32.8611C14.2061 32.3605 14.0915 31.7721 14.2014 31.2778C14.3173 30.7565 14.3125 30.2584 14.3125 29.7187C14.3125 29.4953 14.393 29.1301 14.309 28.9201C14.2138 28.6819 14.25 29.431 14.25 29.6875C14.25 29.8268 14.201 30.4851 14.1875 30.0278C14.1787 29.7276 14.1875 29.4252 14.1875 29.125C14.1875 28.9838 14.1875 28.8426 14.1875 28.7014C14.1875 28.5998 14.1875 28.9541 14.1875 29.0312C14.1875 29.5498 14.1875 30.0683 14.1875 30.5868C14.1875 30.8611 14.1875 31.1354 14.1875 31.4097C14.1875 31.5293 14.2317 31.7423 14.1528 31.8437C14.0364 31.9933 14 32.0547 14 32.25C14 32.4778 13.9874 32.71 14 32.9375C14.0124 33.1606 14.1875 33.281 14.1875 33.5243C14.1875 34.3876 14.3125 31.8008 14.3125 30.9375" stroke="#FE705A" stroke-width="3" stroke-linecap="round"/>
<path d="M13.9375 32.0625C13.9375 31.4213 13.9375 30.7801 13.9375 30.1389C13.9375 29.8953 14.0067 29.6792 14.125 29.4722C14.3079 29.1522 14.1875 28.4999 14.1875 28.125" stroke="#FE705A" stroke-width="3" stroke-linecap="round"/>
<path d="M14.1875 28.125C14.1875 28.3123 14.1828 28.4515 14.125 28.625" stroke="#FE705A" stroke-width="3" stroke-linecap="round"/>
<path d="M13.8125 28.9375V29.4375" stroke="#FE705A" stroke-width="3" stroke-linecap="round"/>
<path d="M27.1875 19.625C27.4409 19.9347 27.3125 20.6463 27.3125 21.0243C27.3125 21.5923 27.5625 22.1848 27.5625 22.7812C27.5625 23.3441 27.7677 23.8908 27.9097 24.4306C28.0407 24.9284 27.9375 25.5393 27.9375 26.0486C27.9375 26.287 27.9375 26.5255 27.9375 26.7639C27.9375 27.7479 28 24.7965 28 23.8125" stroke="white" stroke-linecap="round"/>
<path d="M27.6875 30.5C28.0042 30.3812 27.8125 28.745 27.8125 28.4653C27.8125 27.9803 27.8125 27.4954 27.8125 27.0104C27.8125 26.5023 27.8125 25.9942 27.8125 25.4861C27.8125 24.4657 27.6875 23.4566 27.6875 22.4375" stroke="white" stroke-linecap="round"/>
<path d="M28.125 21.875C28.125 22.352 28.0539 22.8868 28.1389 23.3542C28.2533 23.9833 28.1567 24.6301 28.3125 25.2535C28.5315 26.1295 28.3125 27.1203 28.3125 28" stroke="white" stroke-linecap="round"/>
<path d="M28.0625 23C28.3495 23.0179 28.3125 24.2702 28.3125 24.5312C28.3125 25.2708 28.3125 26.0104 28.3125 26.75" stroke="white" stroke-linecap="round"/>
<path d="M27.6875 31.125C27.6875 30.3854 27.6875 29.6458 27.6875 28.9062C27.6875 28.0627 27.5 27.2581 27.5 26.4062C27.5 24.7083 27.5 23.0104 27.5 21.3125" stroke="white" stroke-linecap="round"/>
<path d="M27.75 31.5625C27.75 30.6724 27.625 29.8089 27.625 28.9236C27.625 28.3782 27.6786 27.8129 27.6215 27.2708C27.5398 26.4946 27.3125 25.7479 27.3125 24.9618C27.3125 23.5965 27.25 22.2906 27.25 20.9375" stroke="white" stroke-linecap="round"/>
<path d="M27.75 30.9375C27.75 30.2993 27.625 29.7009 27.625 29.0625" stroke="white" stroke-linecap="round"/>
<path d="M27.6875 30.3125C27.6411 30.3067 27.5 29.0535 27.5 28.9097C27.5 28.4942 27.5 28.0787 27.5 27.6632C27.5 27.3518 27.5743 26.9504 27.4931 26.6458C27.443 26.4582 27.3125 26.294 27.3125 26.0938C27.3125 25.7847 27.3125 25.4757 27.3125 25.1667C27.3125 24.4849 27.3751 23.782 27.3056 23.1042C27.234 22.4064 27.1875 21.7576 27.1875 21.0625" stroke="white" stroke-linecap="round"/>
<path d="M27.6875 29.8125V31.125" stroke="white" stroke-linecap="round"/>
<path d="M27.5625 29.5625V30" stroke="white" stroke-linecap="round"/>
<path d="M27.5625 30.3125C27.2985 30.3125 27.4475 28.1324 27.4375 27.7014C27.4269 27.2459 27.25 26.7982 27.25 26.3438C27.25 25.3421 27.1875 24.3228 27.1875 23.3125" stroke="white" stroke-linecap="round"/>
<path d="M19.375 18.375C19.375 17.9584 19.4271 16.6369 19.9306 16.4931C20.5766 16.3085 20.1475 15.5617 20.6181 15.3264C20.8976 15.1866 20.625 15.9514 20.625 16.2639C20.625 16.5301 20.625 16.7963 20.625 17.0625C20.625 17.3918 20.5636 17.9265 20.4375 18.2292C20.4281 18.2517 20.375 17.3513 20.375 17.0625C20.375 16.7464 20.375 17.8242 20.375 17.9861C20.375 18.8321 20.375 16.9091 20.375 16.5278C20.375 14.6569 20.392 20.2712 20.5 22.1389C20.5772 23.4747 20.6688 24.8098 20.7431 26.1458C20.7524 26.3146 20.681 25.4846 20.75 25.6389C20.9931 26.1823 21.0609 26.7881 21.2222 27.3611C21.7419 29.2067 22.4423 31.0615 22.7569 32.9583C23.0598 34.7846 22.875 36.7237 22.875 38.5694C22.875 40.5186 23.1681 34.6399 22.8194 32.7222C22.7319 32.2408 22.0632 34.0293 21.6528 34C20.522 33.9192 20.4444 30.7629 20.375 30" stroke="#FE705A" stroke-linecap="round"/>
<path d="M12.375 35.375C12.375 34.0184 12.3975 32.6771 12.2222 31.3333C11.9626 29.3431 12.25 27.4008 12.25 25.4306C12.25 25.2083 12.25 24.9861 12.25 24.7639C12.25 24.4583 12.173 25.3867 12.257 25.6806C12.3508 26.0089 12.5 26.4088 12.5 26.7778C12.5 28.0694 12.5 29.3611 12.5 30.6528C12.5 31.7548 12.625 32.6908 12.625 33.7778C12.625 34.2457 12.6376 34.6378 12.757 35.0556C12.805 35.2237 12.875 35.2862 12.875 35.5C12.875 36.0093 12.875 34.4815 12.875 33.9722C12.875 32.9217 12.8809 31.9401 12.632 30.9236C12.4843 30.3207 12.5 29.7375 12.5 29.125C12.5 28.1018 12.5 27.0787 12.5 26.0556C12.5 25.6106 12.375 25.2101 12.375 24.75C12.375 24.5625 12.375 24.375 12.375 24.1875C12.375 23.8462 12.375 24.6848 12.375 24.8125C12.375 25.3492 12.625 25.8391 12.625 26.375C12.625 26.9375 12.625 27.5 12.625 28.0625C12.625 29.3862 13 30.6042 13 31.9375C13 32.4167 13 32.8958 13 33.375C13 33.6347 13.2322 35.4046 13.0556 35.3542C12.7783 35.275 12.7562 31.3814 12.75 31.1528C12.7314 30.4651 12.375 29.824 12.375 29.1319C12.375 28.463 12.375 27.794 12.375 27.125C12.375 26.7083 12.375 26.2917 12.375 25.875C12.375 25.6591 12.5396 24.5634 12.5972 24.9167C12.7057 25.5809 12.625 26.3245 12.625 27C12.625 28.0181 13 28.9937 13 30C13 30.875 13 31.75 13 32.625" stroke="white" stroke-linecap="round"/>
<path d="M12.5 23.625C12.5 23.9375 12.5 24.25 12.5 24.5625C12.5 24.8413 12.7371 24.9062 12.75 25.125C12.7947 25.885 12.75 26.6618 12.75 27.4236C12.75 28.0446 12.875 26.9642 12.875 26.75C12.875 26.3935 12.875 26.037 12.875 25.6806C12.875 24.9305 12.625 24.2307 12.625 23.5" stroke="white" stroke-linecap="round"/>
<path d="M12.875 29.5C12.875 29.1458 12.875 28.7917 12.875 28.4375C12.875 27.5319 12.6199 27.1071 12.375 26.25" stroke="white" stroke-linecap="round"/>
</svg>
