<svg width="63" height="64" viewBox="0 0 63 64" fill="none" xmlns="http://www.w3.org/2000/svg">
<path d="M35.6188 0.64766C18.4443 -1.55534 2.73059 10.5808 0.527589 27.7579C-1.67541 44.9324 10.4581 60.6434 27.6352 62.849C44.8123 65.052 60.5286 52.916 62.7264 35.7388C64.932 18.5643 52.7985 2.85327 35.6188 0.64766ZM42.0762 20.2081C41.4943 20.2157 40.9383 20.4501 40.5265 20.8614L28.8896 32.4984L28.0873 31.6961L26.4069 30.0157C37.8766 18.58 39.9438 18.4703 42.0762 20.2081ZM29.3678 32.9113L40.9708 21.3083C41.1229 21.1488 41.3059 21.022 41.5086 20.9356C41.7114 20.8493 41.9297 20.8052 42.15 20.8061C42.3704 20.807 42.5883 20.8529 42.7903 20.9409C42.9924 21.0289 43.1744 21.1572 43.3251 21.3179C43.4759 21.4787 43.5923 21.6685 43.6672 21.8757C43.7421 22.083 43.7739 22.3034 43.7607 22.5233C43.7475 22.7433 43.6896 22.9583 43.5905 23.1551C43.4914 23.352 43.3531 23.5265 43.1842 23.6681L30.9044 34.4479L29.3678 32.9113ZM30.2302 34.7249L27.3556 35.3468C27.3212 35.3546 27.2853 35.3505 27.2535 35.3354C27.2218 35.3202 27.196 35.2948 27.1805 35.2632C27.163 35.233 27.1561 35.1979 27.1608 35.1634C27.1655 35.1288 27.1817 35.0968 27.2066 35.0725L28.8922 33.3869L30.2302 34.7249ZM22.9051 33.5254L25.9679 30.4626L28.265 32.7571L23.0933 33.8703C23.0502 33.8815 23.0046 33.8775 22.9641 33.8589C22.9236 33.8404 22.8908 33.8084 22.8712 33.7684C22.8468 33.7305 22.8368 33.6852 22.8431 33.6406C22.8493 33.596 22.8713 33.5551 22.9051 33.5254ZM13.3771 49.3567C13.351 49.3544 13.3256 49.3469 13.3023 49.3348C13.2791 49.3226 13.2585 49.3059 13.2418 49.2858C13.225 49.2656 13.2124 49.2423 13.2047 49.2173C13.197 49.1922 13.1943 49.1659 13.1968 49.1398C13.2017 49.0943 13.222 49.0519 13.2543 49.0195H13.2595L15.7317 46.5474L18.9251 49.7408L13.3771 49.3567ZM19.7143 46.0744C19.5958 46.1356 19.5013 46.2348 19.4459 46.3561C19.3905 46.4774 19.3773 46.6137 19.4086 46.7434L19.9391 49.0039C19.9562 49.0735 19.9499 49.1469 19.9212 49.2126C19.8925 49.2783 19.843 49.3328 19.7803 49.3676C19.7175 49.4024 19.6451 49.4155 19.5742 49.4051C19.5032 49.3946 19.4377 49.361 19.3877 49.3096H19.3798L16.939 46.8688L16.1707 46.0979L26.0019 36.2772L30.7581 35.2502L33.0421 37.5342C29.7624 40.414 25.278 43.286 19.7143 46.0744ZM33.5098 37.116H33.5046L31.3121 34.9235L43.5919 24.1437C43.7055 24.0428 43.8096 23.9317 43.9029 23.8118C43.5161 27.3267 38.6005 32.2919 33.5098 37.116ZM43.0666 20.2342L43.0588 20.229C42.1948 19.3609 41.6985 18.1932 41.6732 16.9686C41.6479 15.7441 42.0955 14.5568 42.9228 13.6537C43.7502 12.7506 44.8938 12.2011 46.1159 12.1194C47.338 12.0377 48.5446 12.43 49.4849 13.2149L45.2775 17.4302C45.2483 17.4591 45.2252 17.4935 45.2094 17.5314C45.1936 17.5693 45.1855 17.6099 45.1855 17.651C45.1855 17.6921 45.1936 17.7327 45.2094 17.7706C45.2252 17.8085 45.2483 17.8429 45.2775 17.8718L48.5362 21.1306C47.6455 21.5727 46.6384 21.7241 45.6571 21.5633C44.6757 21.4024 43.7696 20.9376 43.0666 20.2342ZM49.8037 20.2342C49.5875 20.4476 49.3502 20.6385 49.0955 20.8039L45.9386 17.6497L49.9448 13.6435C51.6722 15.5251 51.6095 18.4311 49.8037 20.2342ZM49.5423 16.1993C49.4795 16.2449 49.4324 16.3088 49.4076 16.3824C49.3828 16.4559 49.3815 16.5353 49.4038 16.6096C49.4969 16.798 49.5333 17.0094 49.5087 17.2181C49.4842 17.4268 49.3996 17.6239 49.2653 17.7856C49.2354 17.8233 49.2132 17.8665 49.2 17.9129C49.1868 17.9592 49.1829 18.0076 49.1885 18.0555C49.1941 18.1033 49.2091 18.1495 49.2326 18.1916C49.2561 18.2336 49.2876 18.2706 49.3254 18.3004C49.3882 18.3496 49.4652 18.3771 49.545 18.3788C49.5978 18.3783 49.65 18.3664 49.6978 18.3438C49.7456 18.3213 49.788 18.2886 49.822 18.2481C50.0464 17.9785 50.1875 17.6492 50.2279 17.3007C50.2682 16.9522 50.2062 16.5994 50.0493 16.2856C50.022 16.2463 49.9871 16.2128 49.9466 16.1872C49.9062 16.1616 49.8611 16.1442 49.8139 16.1362C49.7667 16.1282 49.7184 16.1296 49.6718 16.1404C49.6252 16.1513 49.5812 16.1713 49.5423 16.1993Z" fill="#FE705A"/>
</svg>
