<svg width="61" height="68" viewBox="0 0 61 68" fill="none" xmlns="http://www.w3.org/2000/svg">
<path d="M30.36 25.0024C47.1187 25.0024 60.7059 21.4081 60.72 16.9728V59.8271C60.72 64.2655 47.1273 67.8635 30.36 67.8635V53.8585L30.4805 53.8622L32.5566 56.1012C33.2233 56.7962 33.9087 57.4013 34.6127 57.9162C35.3165 58.431 36.0525 58.8366 36.8204 59.1329C37.5884 59.429 38.4292 59.577 39.343 59.577L41.2673 59.4543L42.504 59.2109V55.5142L42.0441 55.6593L41.5218 55.771L40.9837 55.8401L40.4949 55.8624L38.9746 55.7463L37.613 55.329L36.2957 54.5075L34.914 53.1791C36.8517 52.4857 38.3622 51.2905 39.4457 49.594C40.532 47.8795 41.0753 45.8316 41.0753 43.4505C41.0753 40.4026 40.1868 37.9514 38.4099 36.0971C36.6418 34.225 34.3306 33.2888 31.4762 33.2888L30.36 33.334V25.0024ZM55.3624 8.03647H60.72V11.6082C60.72 16.0467 47.1273 19.6447 30.36 19.6447V10.7153C44.1684 10.7153 55.3624 9.51607 55.3624 8.03647ZM31.3199 37.2892C32.8558 37.2892 34.0568 37.8593 34.9229 38.9992C35.786 40.1213 36.2177 41.6825 36.2177 43.6827C36.2177 45.6114 35.7668 47.128 34.8649 48.2322C33.975 49.3186 32.7561 49.8618 31.2083 49.8618L30.36 49.797V37.3698L31.3199 37.2892ZM56.2196 53.5765V49.8618H48.7903V33.5746H44.2184V53.5765H56.2196Z" fill="#FE705A"/>
<path d="M30.36 67.8635C13.5925 67.8635 0 64.2655 0 59.8271V16.9659C0 21.4043 13.5927 25.0024 30.36 25.0024V33.2953C27.7899 33.5012 25.6946 34.4604 24.0737 36.1729C22.2401 38.1106 21.3234 40.6585 21.3234 43.8164C21.3234 45.1977 21.5406 46.4908 21.9753 47.6963C22.4098 48.9018 23.0252 49.9518 23.8213 50.8462C24.6177 51.7406 25.5767 52.4519 26.6989 52.9803C27.798 53.4977 29.0183 53.779 30.36 53.8238V67.8635ZM60.72 8.03647H55.3624C55.3624 6.55705 44.1684 5.35765 30.36 5.35765C16.5516 5.35765 5.35765 6.55705 5.35765 8.03647C5.35765 9.51607 16.5516 10.7153 30.36 10.7153V19.6447C13.5925 19.6447 0 16.0467 0 11.6082V8.03647C0 3.5982 13.5927 0 30.36 0C47.1187 0 60.7059 3.59445 60.72 8.03647ZM5.60767 52.7414C6.33685 53.1016 7.19925 53.3725 8.19488 53.554C9.19051 53.7356 10.2404 53.8263 11.3448 53.8263C12.4192 53.8263 13.4402 53.7245 14.4076 53.5206C15.3748 53.3166 16.2231 52.9811 16.9525 52.5137C17.6817 52.0465 18.259 51.4363 18.6848 50.6832C19.1104 49.9302 19.3232 48.9985 19.3232 47.8883C19.3232 47.0846 19.2041 46.3801 18.9661 45.7743C18.7278 45.1685 18.3841 44.6299 17.9347 44.1581C17.4852 43.6863 16.9464 43.2628 16.3185 42.8878L14.1933 41.8252L12.6396 41.1266L11.4698 40.4322L10.7264 39.6844C10.5522 39.421 10.4653 39.1226 10.4653 38.7892C10.4653 38.4708 10.5433 38.1829 10.6996 37.9254L11.3604 37.2623L12.4074 36.8336L13.7825 36.6819L14.9478 36.7667L16.1801 37.0301L17.3856 37.481L18.466 38.1106V34.0075C17.7874 33.7516 17.0454 33.5619 16.2403 33.4383L13.47 33.253C12.4074 33.253 11.4013 33.3662 10.4519 33.5923C9.50232 33.8185 8.66671 34.1727 7.94485 34.6549C7.223 35.1371 6.65313 35.7503 6.23487 36.4943C5.81662 37.2385 5.60767 38.1284 5.60767 39.1642C5.60767 40.4858 5.98556 41.6139 6.74171 42.5485C7.49767 43.4832 8.64653 44.2735 10.1885 44.9192L11.8783 45.6559L13.2334 46.406L14.1353 47.2521C14.3555 47.5572 14.4656 47.9033 14.4656 48.2901L14.2579 49.125C14.1195 49.3811 13.909 49.6036 13.6263 49.7925L12.5703 50.2367L11.0903 50.3974C10.1288 50.3974 9.1764 50.2308 8.23292 49.8974C7.28926 49.5641 6.41417 49.0641 5.60767 48.3972V52.7414ZM27.5606 38.9901C28.2971 38.0718 29.2303 37.5176 30.36 37.3278V49.7666C29.2319 49.5956 28.2943 49.0543 27.5472 48.1428C26.6364 47.0118 26.181 45.4863 26.181 43.5664C26.181 41.6645 26.6409 40.1391 27.5606 38.9901Z" fill="#FE705A"/>
</svg>
